<?xml version="1.0" encoding="utf-8"?>
<!-- Generator: Adobe Illustrator 26.0.3, SVG Export Plug-In . SVG Version: 6.00 Build 0)  -->
<svg version="1.0" id="Layer_1" xmlns="http://www.w3.org/2000/svg" xmlns:xlink="http://www.w3.org/1999/xlink" x="0px" y="0px"
	 viewBox="0 0 884 615.2" style="enable-background:new 0 0 884 615.2;" xml:space="preserve">
<path d="M450.9,314.4c0.1-0.3,0-0.7,0.5-0.8c0.4,0,0.8-0.1,1.2,0H590c0,1.1,0,2.1,0.1,3.2c-0.2,7.1,1.9,14.1,5.9,20
	c3.2,5.3,7.4,9.9,12.5,13.3c5.7,4.2,12.3,7,19.4,8.1l0.8,0.1c0.7,0.4,1.6,0.5,2.4,0.3c13.9,1.2,24.9-4.2,33.4-15
	c3.3-4.1,5.8-8.7,7.6-13.6c0.4-0.5,0.7-1.1,0.7-1.8c1-3.6,1.4-7.3,1.4-11c0-21,0-42.1,0-63.1c0-1.9-0.1-3.8-0.1-5.8
	c0-1.5,1.1-1.1,1.9-1.2c0.5,0,1.1,0.1,1.6,0.1h124.6c4.4,0,8.8,0,13.1,0c0.7,0,1.5-0.3,1.7,0.8c-0.2,0.4-0.2,0.8,0,1.2v1.2
	c-0.1,0.5-0.1,0.9-0.2,1.4c0,50.8,0,101.7,0,152.5c0,3.3,0.3,2.8-2.7,2.8c-118.9,0-237.8,0-356.8,0c-1.1,0-2.1,0-3.2,0.1H453h-1.2
	c-1.5-0.3-0.8-1.5-0.8-2.2c0-28.8,0-57.6,0-86.4C450.9,317.1,450.9,315.7,450.9,314.4z"/>
<path d="M67,249.1c0.1-1-0.1-2.3,1.6-2.1c0.7,0,1.5,0.1,2.2,0.1c45.6,0,91.2,0,136.8,0c0.8,0,1.6-0.4,2.2,0.4v1.2v1.2v1.2
	c0,0.3-0.1,0.5-0.1,0.8c0,22.2-0.1,44.4,0.1,66.6c-0.1,5.2,1.1,10.4,3.4,15.2c0.3,0.4,0.5,0.7,0.7,1.1c2.2,6,6,10.6,10.9,14.6
	c0,0.1,0.1,0.2,0.2,0.2c0.3,0.5,0.8,0.9,1.4,1.1c0.5,0.5,1.1,1,1.7,1.3l1.3,0.9l1,0.5c1.7,1.3,3.6,2.2,5.6,2.8
	c0.3,0.4,0.7,0.4,1.2,0.5c0.2,0.3,0.5,0.4,0.8,0.3c5.9,2.3,12.3,3,18.6,2.2c2.5-0.3,5.1-0.5,7.4-1.7c14.2-3.7,26.6-16.6,29.3-32.9
	c0.7-3.3,0.9-6.7,0.6-10.1c-0.1-0.6,0-0.9,0.7-0.9c0.6,0,1,0.1,1.6,0.1h134.7c0.6,0,1.2,0,1.8,0s0.6,0.4,0.6,0.8c0,0.8,0,1.6,0,2.4
	v2.8c0,0.4-0.1,0.8-0.1,1.2c0,27.8,0,55.5,0,83.3c0,0.4,0,0.8,0.1,1.2c0.1,1.2-0.3,1.9-1.6,1.7c-0.7,0-1.3-0.1-2-0.1H74.9
	c-0.8,0-1.6,0.1-2.4,0.1l-2,0c-0.8-0.2-1.6-0.2-2.4,0c-1.2,0.6-1.1-0.2-1.1-1c0-5.7,0-11.4,0-17.1V251.1
	C67.1,250.4,67,249.8,67,249.1z"/>
<path d="M531.5,243.5c10.4-3.1,19.7-9.3,26.5-17.7c0.6-0.7,1-1.8,2.1-1.9c0.7,0,1.3,0.1,2,0.1c8.2,0,16.4,0,24.7,0
	c0.7,0,1.5-0.3,2,0.5c0,0.3,0,0.5,0,0.8c-0.2,0.4-0.2,0.8,0,1.2c0,0.3,0,0.5,0,0.8c0,0.6,0,1.3,0,2c-0.2,0.5-0.3,1-0.2,1.5
	c0,20.6,0,41.2,0,61.9c-0.1,0.5,0,1.1,0.2,1.5c-0.2,0.6,0.2,1.4-0.7,1.8c-0.5,0-1.1-0.1-1.6-0.1h-287c-0.6,0-1.2,0.1-1.8,0.1h-1.6
	c-0.5,0-1.1-0.4-1.6,0.2l-1.2,0.1h-0.8c-0.7-0.6-0.3-1.4-0.3-2c0-22.1,0-44.3,0-66.4c0-0.7,0.4-1.6-0.4-2.2c0.4-2.2,2.2-1.3,3.5-1.7
	c8.6,0,17.2,0.1,25.8,0.1c1.8,0,3.4,0,4.4,1.7c4.1,5.3,9.3,9.7,15.1,13c0.1,0.1,0.2,0.2,0.3,0.1c0.2,0.3,0.5,0.5,0.9,0.5l0,0
	c0.5,0.6,1.2,0.9,2,1.1c0.6,0.3,1.2,0.6,1.8,0.9c7.8,3.6,16.4,5.2,25,4.8c6.9-0.2,13.7-1.8,19.9-4.8c12.4-5.6,21.4-14.7,27.4-26.9
	c0.8-1.6,1.5-3.2,2-4.9c0.1-0.9,1-1.5,1.9-1.4c0,0,0.1,0,0.1,0c0.7,0,1.5,0.1,2.2,0.1h37.1c0.8,0,1.8-0.4,2.2,0.8
	c-0.2,0.7,0.4,1.1,0.6,1.7c2,5.4,4.9,10.5,8.6,14.9l0.1,0.1c1.5,2.1,3.3,4,5.3,5.7c4.7,4.6,10.2,8.1,16.2,10.5l0.4,0.1
	c0.7,0.5,1.6,0.8,2.5,0.9c0.3,0.4,0.8,0.3,1.2,0.4c0.2,0.4,0.5,0.3,0.8,0.3c0.5,0.3,1,0.5,1.6,0.4c0.7,0.4,1.6,0.6,2.4,0.7
	c2.1,0.6,4.4,1,6.6,1.1C517.1,246.4,524.4,246,531.5,243.5z"/>
</svg>
